# xmcd
#
# Track frame offsets:
#	225
#	13502
#	24927
#	36300
#	54445
#	72202
#	82427
#	96582
#	106930
#	118097
#	131070
#	145047
#	162255
#	170142
#	180445
#	192785
#
# Disc length: 2747 seconds
#
# Revision: 0
# Processed by: cddbd v1.4PL0 Copyright (c) Steve Scherf et al.
# Submitted via: EasyCDDAExtractor 5.0.5.1
#
DISCID=df0ab810
DTITLE=Buster Brown - Golden Classics of
DYEAR=1900
DGENRE=R&B
TTITLE0=Fannie Mae
TTITLE1=John Henry
TTITLE2=Madison Shuffle
TTITLE3=St Louis Blues
TTITLE4=When Things Go Wrong
TTITLE5=Lost In A Dream
TTITLE6=I'm Gonna Hold My Baby While i Gotta Chance
TTITLE7=I Got The Blues When It Rains
TTITLE8=Is You Is Or Is You Ain't My Baby
TTITLE9=Don't Dog Your Woman
TTITLE10=Blueberry Hill
TTITLE11=Sincerely
TTITLE12=I'm Going But I'll Be Back
TTITLE13=Good News
TTITLE14=Raise A Ruckus Tonight
TTITLE15=Doctor Brown
EXTD=
EXTT0=
EXTT1=
EXTT2=
EXTT3=
EXTT4=
EXTT5=
EXTT6=
EXTT7=
EXTT8=
EXTT9=
EXTT10=
EXTT11=
EXTT12=
EXTT13=
EXTT14=
EXTT15=
PLAYORDER=
